<svg xmlns="http://www.w3.org/2000/svg" xmlns:xlink="http://www.w3.org/1999/xlink" xmlns:lucid="lucid" width="1501" height="830.2"><g transform="translate(-179.5 -139.5)" lucid:page-tab-id="0_0"><path d="M0 0h1698v1360H0z" fill="#fff"/><path d="M920 168a8 8 0 0 1 8-8h284a8 8 0 0 1 8 8v44a8 8 0 0 1-8 8H928a8 8 0 0 1-8-8z" stroke="#333" fill="#fff"/><use xlink:href="#a" transform="matrix(1,0,0,1,925,165) translate(29.730360243055543 32.052951388888886)"/><use xlink:href="#b" transform="matrix(1,0,0,1,925,165) translate(163.98383246527777 32.052951388888886)"/><path d="M420 348a8 8 0 0 1 8-8h264a8 8 0 0 1 8 8v54a8 8 0 0 1-8 8H428a8 8 0 0 1-8-8z" stroke="#333" fill="#fff"/><use xlink:href="#c" transform="matrix(1,0,0,1,425,345) translate(5.222439236111114 37.677951388888886)"/><use xlink:href="#d" transform="matrix(1,0,0,1,425,345) translate(61.66666666666667 37.677951388888886)"/><use xlink:href="#e" transform="matrix(1,0,0,1,425,345) translate(125.94075520833333 37.677951388888886)"/><path d="M930 348a8 8 0 0 1 8-8h264a8 8 0 0 1 8 8v54a8 8 0 0 1-8 8H938a8 8 0 0 1-8-8z" stroke="#333" fill="#fff"/><use xlink:href="#f" transform="matrix(1,0,0,1,935,345) translate(25.13129340277777 37.677951388888886)"/><use xlink:href="#g" transform="matrix(1,0,0,1,935,345) translate(139.05815972222223 37.677951388888886)"/><path d="M280 476.6a8 8 0 0 1 8-8h144a8 8 0 0 1 8 8v44a8 8 0 0 1-8 8H288a8 8 0 0 1-8-8z" stroke="#333" fill="#fff"/><use xlink:href="#h" transform="matrix(1,0,0,1,285,473.6) translate(5.723741319444457 33.11631944444444)"/><path d="M469.06 476.6a8 8 0 0 1 8-8h165.88a8 8 0 0 1 8 8v44a8 8 0 0 1-8 8H477.06a8 8 0 0 1-8-8z" stroke="#333" fill="#fff"/><use xlink:href="#i" transform="matrix(1,0,0,1,474.0579818063561,473.6) translate(10.1427951388889 33.11631944444444)"/><path d="M680 477.3a8 8 0 0 1 8-8h133.06a8 8 0 0 1 8 8v44a8 8 0 0 1-8 8H688a8 8 0 0 1-8-8z" stroke="#333" fill="#fff"/><use xlink:href="#j" transform="matrix(1,0,0,1,685,474.29425820388605) translate(37.057291666666664 23.741319444444443)"/><use xlink:href="#k" transform="matrix(1,0,0,1,685,474.29425820388605) translate(22.880859375 49.78298611111111)"/><path d="M1440 348a8 8 0 0 1 8-8h204a8 8 0 0 1 8 8v54a8 8 0 0 1-8 8h-204a8 8 0 0 1-8-8z" stroke="#333" fill="#fff"/><use xlink:href="#l" transform="matrix(1,0,0,1,1445,345) translate(26.1032986111111 26.427951388888886)"/><use xlink:href="#b" transform="matrix(1,0,0,1,1445,345) translate(57.357096354166664 55.073784722222214)"/><path d="M200 595.2a8 8 0 0 1 8-8h224a8 8 0 0 1 8 8v346a8 8 0 0 1-8 8H208a8 8 0 0 1-8-8z" stroke="#333" fill="#fff"/><use xlink:href="#m" transform="matrix(1,0,0,1,205,592.1999999999999) translate(0 23.277777777777768)"/><use xlink:href="#n" transform="matrix(1,0,0,1,205,592.1999999999999) translate(20 23.277777777777768)"/><use xlink:href="#o" transform="matrix(1,0,0,1,205,592.1999999999999) translate(0 49.944444444444414)"/><use xlink:href="#p" transform="matrix(1,0,0,1,205,592.1999999999999) translate(20 49.944444444444414)"/><use xlink:href="#q" transform="matrix(1,0,0,1,205,592.1999999999999) translate(-8.881784197001252e-16 78.38888888888884)"/><use xlink:href="#r" transform="matrix(1,0,0,1,205,592.1999999999999) translate(24.281481481481464 78.38888888888884)"/><use xlink:href="#s" transform="matrix(1,0,0,1,205,592.1999999999999) translate(0 107.72222222222216)"/><use xlink:href="#t" transform="matrix(1,0,0,1,205,592.1999999999999) translate(20 107.72222222222216)"/><use xlink:href="#u" transform="matrix(1,0,0,1,205,592.1999999999999) translate(0 135.2777777777777)"/><use xlink:href="#v" transform="matrix(1,0,0,1,205,592.1999999999999) translate(20 135.2777777777777)"/><use xlink:href="#w" transform="matrix(1,0,0,1,205,592.1999999999999) translate(0 161.94444444444434)"/><use xlink:href="#x" transform="matrix(1,0,0,1,205,592.1999999999999) translate(20 161.94444444444434)"/><use xlink:href="#y" transform="matrix(1,0,0,1,205,592.1999999999999) translate(0 188.611111111111)"/><use xlink:href="#z" transform="matrix(1,0,0,1,205,592.1999999999999) translate(20 188.611111111111)"/><use xlink:href="#A" transform="matrix(1,0,0,1,205,592.1999999999999) translate(0 215.27777777777766)"/><use xlink:href="#B" transform="matrix(1,0,0,1,205,592.1999999999999) translate(20 215.27777777777766)"/><use xlink:href="#C" transform="matrix(1,0,0,1,205,592.1999999999999) translate(0 241.94444444444431)"/><use xlink:href="#D" transform="matrix(1,0,0,1,205,592.1999999999999) translate(20 241.94444444444431)"/><use xlink:href="#E" transform="matrix(1,0,0,1,205,592.1999999999999) translate(-3.552713678800501e-15 268.611111111111)"/><use xlink:href="#F" transform="matrix(1,0,0,1,205,592.1999999999999) translate(34.41975308641973 268.611111111111)"/><use xlink:href="#G" transform="matrix(1,0,0,1,205,592.1999999999999) translate(3.552713678800501e-15 295.2777777777776)"/><use xlink:href="#H" transform="matrix(1,0,0,1,205,592.1999999999999) translate(33.185185185185176 295.2777777777776)"/><use xlink:href="#I" transform="matrix(1,0,0,1,205,592.1999999999999) translate(-3.552713678800501e-15 321.94444444444423)"/><use xlink:href="#J" transform="matrix(1,0,0,1,205,592.1999999999999) translate(34.41975308641973 321.94444444444423)"/><use xlink:href="#K" transform="matrix(1,0,0,1,205,592.1999999999999) translate(-3.552713678800501e-15 348.61111111111086)"/><use xlink:href="#L" transform="matrix(1,0,0,1,205,592.1999999999999) translate(34.41975308641973 348.61111111111086)"/><path d="M475.5 595.2a8 8 0 0 1 8-8h144a8 8 0 0 1 8 8v180.67a8 8 0 0 1-8 8h-144a8 8 0 0 1-8-8z" stroke="#333" fill="#fff"/><use xlink:href="#M" transform="matrix(1,0,0,1,480.485091360699,592.1999999999999) translate(0 23.62152777777778)"/><use xlink:href="#N" transform="matrix(1,0,0,1,480.485091360699,592.1999999999999) translate(20 23.62152777777778)"/><use xlink:href="#O" transform="matrix(1,0,0,1,480.485091360699,592.1999999999999) translate(0 50.28819444444445)"/><use xlink:href="#P" transform="matrix(1,0,0,1,480.485091360699,592.1999999999999) translate(20 50.28819444444445)"/><use xlink:href="#Q" transform="matrix(1,0,0,1,480.485091360699,592.1999999999999) translate(0 76.95486111111111)"/><use xlink:href="#R" transform="matrix(1,0,0,1,480.485091360699,592.1999999999999) translate(20 76.95486111111111)"/><use xlink:href="#S" transform="matrix(1,0,0,1,480.485091360699,592.1999999999999) translate(0 103.6215277777778)"/><use xlink:href="#T" transform="matrix(1,0,0,1,480.485091360699,592.1999999999999) translate(20 103.6215277777778)"/><use xlink:href="#U" transform="matrix(1,0,0,1,480.485091360699,592.1999999999999) translate(0 130.28819444444446)"/><use xlink:href="#V" transform="matrix(1,0,0,1,480.485091360699,592.1999999999999) translate(20 130.28819444444446)"/><use xlink:href="#W" transform="matrix(1,0,0,1,480.485091360699,592.1999999999999) translate(0 156.95486111111111)"/><use xlink:href="#X" transform="matrix(1,0,0,1,480.485091360699,592.1999999999999) translate(20 156.95486111111111)"/><use xlink:href="#Y" transform="matrix(1,0,0,1,480.485091360699,592.1999999999999) translate(0 183.62152777777777)"/><use xlink:href="#Z" transform="matrix(1,0,0,1,480.485091360699,592.1999999999999) translate(20 183.62152777777777)"/><path d="M670.97 595.2a8 8 0 0 1 8-8h184a8 8 0 0 1 8 8v74a8 8 0 0 1-8 8h-184a8 8 0 0 1-8-8z" stroke="#333" fill="#fff"/><use xlink:href="#M" transform="matrix(1,0,0,1,675.970182721398,592.1999999999999) translate(0 30.27777777777778)"/><use xlink:href="#aa" transform="matrix(1,0,0,1,675.970182721398,592.1999999999999) translate(22.22222222222222 30.27777777777778)"/><use xlink:href="#O" transform="matrix(1,0,0,1,675.970182721398,592.1999999999999) translate(0 56.94444444444445)"/><use xlink:href="#ab" transform="matrix(1,0,0,1,675.970182721398,592.1999999999999) translate(22.22222222222222 56.94444444444445)"/><path d="M868.05 748a8 8 0 0 1 8-8h224a8 8 0 0 1 8 8v100.67a8 8 0 0 1-8 8h-224a8 8 0 0 1-8-8z" stroke="#333" fill="#fff"/><use xlink:href="#M" transform="matrix(1,0,0,1,873.0460779300333,745) translate(0 21.12152777777778)"/><use xlink:href="#ac" transform="matrix(1,0,0,1,873.0460779300333,745) translate(22.22222222222222 21.12152777777778)"/><use xlink:href="#O" transform="matrix(1,0,0,1,873.0460779300333,745) translate(0 47.78819444444444)"/><use xlink:href="#ad" transform="matrix(1,0,0,1,873.0460779300333,745) translate(22.22222222222222 47.78819444444444)"/><use xlink:href="#Q" transform="matrix(1,0,0,1,873.0460779300333,745) translate(0 74.45486111111111)"/><use xlink:href="#ae" transform="matrix(1,0,0,1,873.0460779300333,745) translate(22.22222222222222 74.45486111111111)"/><use xlink:href="#S" transform="matrix(1,0,0,1,873.0460779300333,745) translate(0 101.12152777777777)"/><use xlink:href="#af" transform="matrix(1,0,0,1,873.0460779300333,745) translate(22.22222222222222 101.12152777777777)"/><path d="M560 323.12V292a12 12 0 0 1 12-12h486a12 12 0 0 0 12-12v-47" stroke="#333" fill="none"/><path d="M560 337.88l-4.63-14.26h9.26z" stroke="#333" fill="#333"/><path d="M1070.5 221h-1v-.5h1z" stroke="#333" stroke-width=".05" fill="#333"/><path d="M1550 323.12V292a12 12 0 0 0-12-12h-456a12 12 0 0 1-12-12v-47" stroke="#333" fill="none"/><path d="M1550 337.88l-4.63-14.26h9.27z" stroke="#333" fill="#333"/><path d="M1070.5 221h-1v-.5h1z" stroke="#333" stroke-width=".05" fill="#333"/><path d="M555.5 570.32V529.6" stroke="#333" fill="none"/><path d="M555.5 585.08l-4.65-14.26h9.27z" stroke="#333" fill="#333"/><path d="M556 529.6h-1v-.5h1z" stroke="#333" stroke-width=".05" fill="#333"/><path d="M320 570.32v-.42a12 12 0 0 1 12-12h16a12 12 0 0 0 12-12v-16.3" stroke="#333" fill="none"/><path d="M320 585.08l-4.63-14.26h9.26z" stroke="#333" fill="#333"/><path d="M360.5 529.6h-1v-.5h1z" stroke="#333" stroke-width=".05" fill="#333"/><path d="M770.97 570.32v-3.85a8.22 8.22 0 0 0-8.22-8.22 8.22 8.22 0 0 1-8.22-8.22V530.3" stroke="#333" fill="none"/><path d="M770.97 585.08l-4.63-14.26h9.26z" stroke="#333" fill="#333"/><path d="M755.03 530.3h-1v-.5h1z" stroke="#333" stroke-width=".05" fill="#333"/><path d="M360 451.72v-.42a12 12 0 0 1 12-12h176a12 12 0 0 0 12-12V411" stroke="#333" fill="none"/><path d="M360 466.48l-4.63-14.26h9.26z" stroke="#333" fill="#333"/><path d="M560.5 411h-1v-.5h1z" stroke="#333" stroke-width=".05" fill="#333"/><path d="M754.53 452.4v-.75a12 12 0 0 0-12-12H572a12 12 0 0 1-12-12V411" stroke="#333" fill="none"/><path d="M754.53 467.18l-4.64-14.27h9.26z" stroke="#333" fill="#333"/><path d="M560.5 411h-1v-.5h1z" stroke="#333" stroke-width=".05" fill="#333"/><path d="M560 451.72v-11.95a.47.47 0 0 0-.47-.47.47.47 0 0 1-.46-.47V411" stroke="#333" fill="none"/><path d="M560 466.48l-4.63-14.26h9.26z" stroke="#333" fill="#333"/><path d="M559.57 411h-1v-.5h1z" stroke="#333" stroke-width=".05" fill="#333"/><path d="M940 477.3a8 8 0 0 1 8-8h84a8 8 0 0 1 8 8v24a8 8 0 0 1-8 8h-84a8 8 0 0 1-8-8z" stroke="#333" fill="#fff"/><g><use xlink:href="#ag" transform="matrix(1,0,0,1,945,474.29425820388605) translate(0.7098765432098801 19.65277777777778)"/></g><path d="M1120 477.3a8 8 0 0 1 8-8h91.96a8 8 0 0 1 8 8v24a8 8 0 0 1-8 8H1128a8 8 0 0 1-8-8z" stroke="#333" fill="#fff"/><g><use xlink:href="#ah" transform="matrix(1,0,0,1,1125,474.29425820388605) translate(1.037037037037038 19.65277777777778)"/></g><path d="M1300 476.6a8 8 0 0 1 8-8h84a8 8 0 0 1 8 8v24a8 8 0 0 1-8 8h-84a8 8 0 0 1-8-8z" stroke="#333" fill="#fff"/><g><use xlink:href="#ai" transform="matrix(1,0,0,1,1305,473.6) translate(9.907407407407412 19.65277777777778)"/></g><path d="M1090.55 595.2a8 8 0 0 1 8-8h144a8 8 0 0 1 8 8v74a8 8 0 0 1-8 8h-144a8 8 0 0 1-8-8z" stroke="#333" fill="#fff"/><g><use xlink:href="#M" transform="matrix(1,0,0,1,1095.548098627379,592.1999999999999) translate(0 30.27777777777778)"/><use xlink:href="#aj" transform="matrix(1,0,0,1,1095.548098627379,592.1999999999999) translate(22.22222222222222 30.27777777777778)"/><use xlink:href="#O" transform="matrix(1,0,0,1,1095.548098627379,592.1999999999999) translate(0 56.94444444444445)"/><use xlink:href="#ak" transform="matrix(1,0,0,1,1095.548098627379,592.1999999999999) translate(22.22222222222222 56.94444444444445)"/></g><path d="M1070 323.12V221" stroke="#333" fill="none"/><path d="M1070 337.88l-4.63-14.26h9.27z" stroke="#333" fill="#333"/><path d="M1070.5 221h-1v-.5h1z" stroke="#333" stroke-width=".05" fill="#333"/><path d="M1280 595.2a8 8 0 0 1 8-8h124a8 8 0 0 1 8 8v47.33a8 8 0 0 1-8 8h-124a8 8 0 0 1-8-8z" stroke="#333" fill="#fff"/><g><use xlink:href="#al" transform="matrix(1,0,0,1,1285.0000000117209,592.1999999999999) translate(39.074074074074076 21.15277777777778)"/><use xlink:href="#am" transform="matrix(1,0,0,1,1285.0000000117209,592.1999999999999) translate(12.592592592592595 47.81944444444444)"/></g><path d="M990 452.4v-.75a12 12 0 0 1 12-12h56a12 12 0 0 0 12-12V411" stroke="#333" fill="none"/><path d="M990 467.18l-4.63-14.27h9.26z" stroke="#333" fill="#333"/><path d="M1070.5 411h-1v-.5h1z" stroke="#333" stroke-width=".05" fill="#333"/><path d="M1173.98 452.4v-.75a12 12 0 0 0-12-12H1082a12 12 0 0 1-12-12V411" stroke="#333" fill="none"/><path d="M1173.98 467.18l-4.64-14.27h9.27z" stroke="#333" fill="#333"/><path d="M1070.5 411h-1v-.5h1z" stroke="#333" stroke-width=".05" fill="#333"/><path d="M1350 451.72v-.42a12 12 0 0 0-12-12h-256a12 12 0 0 1-12-12V411" stroke="#333" fill="none"/><path d="M1350 466.48l-4.63-14.26h9.27z" stroke="#333" fill="#333"/><path d="M1070.5 411h-1v-.5h1z" stroke="#333" stroke-width=".05" fill="#333"/><path d="M988.05 723.12V510.3" stroke="#333" fill="none"/><path d="M988.05 737.88l-4.64-14.26h9.28z" stroke="#333" fill="#333"/><path d="M988.55 510.3h-1v-.5h1z" stroke="#333" stroke-width=".05" fill="#333"/><path d="M1170.55 570.32V510.3" stroke="#333" fill="none"/><path d="M1170.55 585.08l-4.64-14.26h9.28z" stroke="#333" fill="#333"/><path d="M1171.05 510.3h-1v-.5h1z" stroke="#333" stroke-width=".05" fill="#333"/><path d="M1350 570.32V509.6" stroke="#333" fill="none"/><path d="M1350 585.08l-4.63-14.26h9.27z" stroke="#333" fill="#333"/><path d="M1350.5 509.6h-1v-.5h1z" stroke="#333" stroke-width=".05" fill="#333"/><defs><path fill="#33333f" d="M449 0H149v-1456h300V0" id="an"/><path fill="#33333f" d="M741-689c-2-124-40-177-163-178-82 0-141 34-178 102V0H111v-1082h271l9 121c77-94 180-141 311-141 139 0 235 55 287 165 76-110 184-165 325-165 249 0 348 151 348 411V0h-290v-690c-2-123-39-176-163-177-87 0-147 41-180 124l1 743H741v-689" id="ao"/><path fill="#33333f" d="M663-1102c295 0 423 246 423 571 0 313-131 551-421 551-117 0-211-45-281-135L371 0H111v-1536h289v551c67-78 154-117 263-117zm-71 889c164 0 209-139 205-339-3-189-44-315-207-315-92 0-155 38-190 113v427c35 76 99 114 192 114" id="ap"/><path fill="#33333f" d="M552-1102c254-4 435 134 435 383v469c1 103 15 180 43 233V0H738c-13-26-23-58-29-97C639-19 548 20 436 20 238 20 64-113 68-304c5-258 212-357 496-357h133c11-137-29-227-160-227-90 0-156 45-156 131H92c15-231 213-342 460-345zM357-325c0 76 61 124 142 124 88 0 168-45 198-105v-186H589c-152 2-232 51-232 167" id="aq"/><path fill="#33333f" d="M416 0H126v-1536h290V0" id="ar"/><path fill="#33333f" d="M750-692c-1-124-48-174-173-175-81 0-142 35-183 104V0H105v-1082h272l9 125c77-97 181-145 311-145 244 0 342 151 342 403V0H750v-692" id="as"/><path fill="#33333f" d="M355-556c-2 203 30 338 206 343 102 3 181-63 182-161h271C1001-128 821 17 566 20 242 24 66-212 66-554c0-320 184-548 498-548 262 0 451 167 450 423H743c-1-108-75-193-184-189-162 6-202 123-204 312" id="at"/><path fill="#33333f" d="M1031-175C952-60 797 20 609 20 287 20 60-206 72-543c12-330 180-559 505-559 309 0 482 214 477 537v118H365c15 134 115 234 263 234 111 0 198-40 261-121zM770-644c5-139-62-226-194-224-130 1-191 97-208 224h402" id="au"/><path fill="#33333f" d="M488 20C204 20 66-234 66-549c0-305 140-551 424-553 105 0 192 39 261 118v-552h290V0H780l-14-115C694-25 601 20 488 20zM355-528c0 176 51 314 207 314 89 0 152-38 189-113v-427c-36-75-98-113-187-113-139 0-209 113-209 339" id="av"/><g id="a"><use transform="matrix(0.011935763888888888,0,0,0.011935763888888888,0,0)" xlink:href="#an"/><use transform="matrix(0.011935763888888888,0,0,0.011935763888888888,7.125651041666666,0)" xlink:href="#ao"/><use transform="matrix(0.011935763888888888,0,0,0.011935763888888888,28.287760416666664,0)" xlink:href="#ap"/><use transform="matrix(0.011935763888888888,0,0,0.011935763888888888,42.04969618055555,0)" xlink:href="#aq"/><use transform="matrix(0.011935763888888888,0,0,0.011935763888888888,55.15516493055555,0)" xlink:href="#ar"/><use transform="matrix(0.011935763888888888,0,0,0.011935763888888888,61.63628472222222,0)" xlink:href="#aq"/><use transform="matrix(0.011935763888888888,0,0,0.011935763888888888,74.74175347222221,0)" xlink:href="#as"/><use transform="matrix(0.011935763888888888,0,0,0.011935763888888888,88.43207465277777,0)" xlink:href="#at"/><use transform="matrix(0.011935763888888888,0,0,0.011935763888888888,101.1794704861111,0)" xlink:href="#au"/><use transform="matrix(0.011935763888888888,0,0,0.011935763888888888,114.3923611111111,0)" xlink:href="#av"/></g><path fill="#33333f" d="M430-241h637V0H130v-1456h300v1215" id="aw"/><path fill="#33333f" d="M719-811c-143-24-279 1-319 103V0H111v-1082h273l8 129c74-124 180-175 331-136" id="ax"/><path fill="#33333f" d="M416 0H126v-1082h290V0zM271-1212c-92 0-162-61-162-150s68-149 162-149c93 0 162 60 162 149s-70 150-162 150" id="ay"/><path fill="#33333f" d="M505 20C221 18 69-239 69-549c0-302 153-553 438-553 119 0 211 41 277 122l12-102h262V-36c-8 305-208 458-520 462-160 1-335-76-403-170L263 80c72 81 159 121 262 121 172 1 260-107 243-294C701-18 614 20 505 20zm76-887c-165 0-223 147-223 339 0 172 66 314 221 314 88 0 151-33 189-99v-455c-39-66-101-99-187-99" id="az"/><g id="b"><use transform="matrix(0.011935763888888888,0,0,0.011935763888888888,0,0)" xlink:href="#aw"/><use transform="matrix(0.011935763888888888,0,0,0.011935763888888888,13.236762152777777,0)" xlink:href="#au"/><use transform="matrix(0.011935763888888888,0,0,0.011935763888888888,26.449652777777775,0)" xlink:href="#aq"/><use transform="matrix(0.011935763888888888,0,0,0.011935763888888888,39.55512152777778,0)" xlink:href="#ax"/><use transform="matrix(0.011935763888888888,0,0,0.011935763888888888,48.47113715277778,0)" xlink:href="#as"/><use transform="matrix(0.011935763888888888,0,0,0.011935763888888888,62.16145833333334,0)" xlink:href="#ay"/><use transform="matrix(0.011935763888888888,0,0,0.011935763888888888,68.642578125,0)" xlink:href="#as"/><use transform="matrix(0.011935763888888888,0,0,0.011935763888888888,82.33289930555556,0)" xlink:href="#az"/></g><path fill="#33333f" d="M130 0v-1456h448c435 14 673 299 665 762-5 285-130 500-319 606C822-31 708 0 581 0H130zm809-685c9-311-79-526-361-528H430v972h145c252-2 356-181 364-444" id="aA"/><path fill="#33333f" d="M457-330c2 83 25 111 111 112 32 0 60-2 85-7V-6c-57 17-115 26-175 26-203 0-310-102-310-307v-583H10v-212h158v-266h289v266h185v212H457v540" id="aB"/><g id="c"><use transform="matrix(0.011935763888888888,0,0,0.011935763888888888,0,0)" xlink:href="#aA"/><use transform="matrix(0.011935763888888888,0,0,0.011935763888888888,15.88650173611111,0)" xlink:href="#aq"/><use transform="matrix(0.011935763888888888,0,0,0.011935763888888888,28.99197048611111,0)" xlink:href="#aB"/><use transform="matrix(0.011935763888888888,0,0,0.011935763888888888,37.25151909722222,0)" xlink:href="#aq"/></g><path fill="#33333f" d="M516-353l201-729h302L654 0H378L13-1082h302" id="aC"/><g id="d"><use transform="matrix(0.011935763888888888,0,0,0.011935763888888888,0,0)" xlink:href="#aw"/><use transform="matrix(0.011935763888888888,0,0,0.011935763888888888,13.236762152777777,0)" xlink:href="#au"/><use transform="matrix(0.011935763888888888,0,0,0.011935763888888888,26.29448784722222,0)" xlink:href="#aC"/><use transform="matrix(0.011935763888888888,0,0,0.011935763888888888,38.492838541666664,0)" xlink:href="#au"/><use transform="matrix(0.011935763888888888,0,0,0.011935763888888888,51.705729166666664,0)" xlink:href="#ar"/></g><path fill="#33333f" d="M522-1456L896-400l372-1056h394V0h-301c-7-379 15-728 30-1085L998 0H792L400-1084c15 357 37 705 30 1084H130v-1456h392" id="aD"/><path fill="#33333f" d="M579 20C257 20 58-214 66-551c8-331 182-551 511-551 324 0 514 231 514 572 0 319-198 550-512 550zm-2-888c-169 0-222 141-222 338 0 181 61 317 224 317 170 0 223-137 223-338 0-178-64-317-225-317" id="aE"/><path fill="#33333f" d="M190-1174c-11-296 244-440 544-363l-3 224c-24-6-53-9-88-9-109 0-163 51-163 153v87h215v212H480V0H190v-870H29v-212h161v-92" id="aF"/><g id="e"><use transform="matrix(0.011935763888888888,0,0,0.011935763888888888,0,0)" xlink:href="#aD"/><use transform="matrix(0.011935763888888888,0,0,0.011935763888888888,21.412760416666664,0)" xlink:href="#aE"/><use transform="matrix(0.011935763888888888,0,0,0.011935763888888888,35.234375,0)" xlink:href="#av"/><use transform="matrix(0.011935763888888888,0,0,0.011935763888888888,49.00824652777777,0)" xlink:href="#ay"/><use transform="matrix(0.011935763888888888,0,0,0.011935763888888888,55.48936631944444,0)" xlink:href="#aF"/><use transform="matrix(0.011935763888888888,0,0,0.011935763888888888,64.25021701388889,0)" xlink:href="#ay"/><use transform="matrix(0.011935763888888888,0,0,0.011935763888888888,70.73133680555556,0)" xlink:href="#at"/><use transform="matrix(0.011935763888888888,0,0,0.011935763888888888,83.47873263888889,0)" xlink:href="#aq"/><use transform="matrix(0.011935763888888888,0,0,0.011935763888888888,96.58420138888889,0)" xlink:href="#aB"/><use transform="matrix(0.011935763888888888,0,0,0.011935763888888888,104.84375,0)" xlink:href="#ay"/><use transform="matrix(0.011935763888888888,0,0,0.011935763888888888,111.32486979166669,0)" xlink:href="#aE"/><use transform="matrix(0.011935763888888888,0,0,0.011935763888888888,125.14648437499999,0)" xlink:href="#as"/></g><path fill="#33333f" d="M1006-631H430v390h676V0H130v-1456h974v243H430v347h576v235" id="aG"/><path fill="#33333f" d="M529-185c94 0 168-33 168-114 0-35-18-63-53-83s-91-39-168-55C219-491 90-600 90-765c0-208 203-337 432-337 246 0 451 124 453 349H686c-2-91-62-143-165-143-86 0-151 41-153 117 0 32 16 57 46 77 63 43 257 69 335 100 151 60 229 153 229 291C978-13 554 93 282-28 162-81 60-190 56-344h274c5 106 86 159 199 159" id="aH"/><g id="f"><use transform="matrix(0.011935763888888888,0,0,0.011935763888888888,0,0)" xlink:href="#aG"/><use transform="matrix(0.011935763888888888,0,0,0.011935763888888888,13.75,0)" xlink:href="#as"/><use transform="matrix(0.011935763888888888,0,0,0.011935763888888888,27.44032118055556,0)" xlink:href="#aH"/><use transform="matrix(0.011935763888888888,0,0,0.011935763888888888,40.00868055555556,0)" xlink:href="#au"/><use transform="matrix(0.011935763888888888,0,0,0.011935763888888888,53.22157118055555,0)" xlink:href="#ao"/><use transform="matrix(0.011935763888888888,0,0,0.011935763888888888,74.38368055555556,0)" xlink:href="#ap"/><use transform="matrix(0.011935763888888888,0,0,0.011935763888888888,88.14561631944444,0)" xlink:href="#ar"/><use transform="matrix(0.011935763888888888,0,0,0.011935763888888888,94.62673611111111,0)" xlink:href="#au"/></g><path fill="#33333f" d="M952-300H426L326 0H7l542-1456h278L1372 0h-319zM507-543h364l-183-545" id="aI"/><path fill="#33333f" d="M663-1102c295 0 422 250 422 571 0 300-141 549-420 551-109 0-198-38-265-114v510H111v-1498h268l10 106c70-84 161-126 274-126zm133 550c0-175-53-315-209-315-91 0-153 35-187 104v443c35 71 98 107 189 107 138 0 207-113 207-339" id="aJ"/><path fill="#33333f" d="M750-685c-1-124-48-182-173-182-85 0-146 33-184 98V0H104v-1536h289v572c77-92 173-138 289-138 235 0 357 136 357 409V0H750v-685" id="aK"/><g id="g"><use transform="matrix(0.011935763888888888,0,0,0.011935763888888888,0,0)" xlink:href="#aI"/><use transform="matrix(0.011935763888888888,0,0,0.011935763888888888,16.44748263888889,0)" xlink:href="#aJ"/><use transform="matrix(0.011935763888888888,0,0,0.011935763888888888,30.209418402777782,0)" xlink:href="#aJ"/><use transform="matrix(0.011935763888888888,0,0,0.011935763888888888,43.971354166666664,0)" xlink:href="#ax"/><use transform="matrix(0.011935763888888888,0,0,0.011935763888888888,52.457682291666664,0)" xlink:href="#aE"/><use transform="matrix(0.011935763888888888,0,0,0.011935763888888888,66.279296875,0)" xlink:href="#aq"/><use transform="matrix(0.011935763888888888,0,0,0.011935763888888888,79.384765625,0)" xlink:href="#at"/><use transform="matrix(0.011935763888888888,0,0,0.011935763888888888,92.13216145833333,0)" xlink:href="#aK"/></g><path fill="#33333f" d="M1248-1138c106 220 104 603 2 820-91 195-274 338-542 338C281 20 86-300 86-759c0-291 115-515 296-629 182-114 467-115 648 0 94 60 166 141 218 250zM940-344c111-153 110-617 0-765-57-77-133-119-234-119s-177 41-233 118c-64 88-83 240-83 415 0 149 27 264 82 346s133 123 236 123c101 0 176-40 232-118" id="aL"/><g id="h"><use transform="matrix(0.010850694444444444,0,0,0.010850694444444444,0,0)" xlink:href="#aL"/><use transform="matrix(0.010850694444444444,0,0,0.010850694444444444,15.342881944444445,0)" xlink:href="#aC"/><use transform="matrix(0.010850694444444444,0,0,0.010850694444444444,26.432291666666664,0)" xlink:href="#au"/><use transform="matrix(0.010850694444444444,0,0,0.010850694444444444,38.444010416666664,0)" xlink:href="#ax"/><use transform="matrix(0.010850694444444444,0,0,0.010850694444444444,46.549479166666664,0)" xlink:href="#aH"/><use transform="matrix(0.010850694444444444,0,0,0.010850694444444444,57.975260416666664,0)" xlink:href="#aq"/><use transform="matrix(0.010850694444444444,0,0,0.010850694444444444,69.88932291666666,0)" xlink:href="#ao"/><use transform="matrix(0.010850694444444444,0,0,0.010850694444444444,89.12760416666666,0)" xlink:href="#aJ"/><use transform="matrix(0.010850694444444444,0,0,0.010850694444444444,101.63845486111111,0)" xlink:href="#ar"/><use transform="matrix(0.010850694444444444,0,0,0.010850694444444444,107.53038194444441,0)" xlink:href="#ay"/><use transform="matrix(0.010850694444444444,0,0,0.010850694444444444,113.42230902777776,0)" xlink:href="#as"/><use transform="matrix(0.010850694444444444,0,0,0.010850694444444444,125.86805555555553,0)" xlink:href="#az"/></g><path fill="#33333f" d="M416-495c-3 181 88 274 258 274 169 0 257-89 257-266v-969h301v959c3 324-227 517-558 517-328 0-557-188-558-506v-970h300v961" id="aM"/><g id="i"><use transform="matrix(0.010850694444444444,0,0,0.010850694444444444,0,0)" xlink:href="#aM"/><use transform="matrix(0.010850694444444444,0,0,0.010850694444444444,14.62673611111111,0)" xlink:href="#as"/><use transform="matrix(0.010850694444444444,0,0,0.010850694444444444,27.07248263888889,0)" xlink:href="#av"/><use transform="matrix(0.010850694444444444,0,0,0.010850694444444444,39.59418402777777,0)" xlink:href="#au"/><use transform="matrix(0.010850694444444444,0,0,0.010850694444444444,51.60590277777778,0)" xlink:href="#ax"/><use transform="matrix(0.010850694444444444,0,0,0.010850694444444444,59.71137152777778,0)" xlink:href="#aH"/><use transform="matrix(0.010850694444444444,0,0,0.010850694444444444,71.13715277777777,0)" xlink:href="#aq"/><use transform="matrix(0.010850694444444444,0,0,0.010850694444444444,83.05121527777777,0)" xlink:href="#ao"/><use transform="matrix(0.010850694444444444,0,0,0.010850694444444444,102.28949652777777,0)" xlink:href="#aJ"/><use transform="matrix(0.010850694444444444,0,0,0.010850694444444444,114.80034722222221,0)" xlink:href="#ar"/><use transform="matrix(0.010850694444444444,0,0,0.010850694444444444,120.69227430555556,0)" xlink:href="#ay"/><use transform="matrix(0.010850694444444444,0,0,0.010850694444444444,126.58420138888887,0)" xlink:href="#as"/><use transform="matrix(0.010850694444444444,0,0,0.010850694444444444,139.02994791666666,0)" xlink:href="#az"/></g><path fill="#33333f" d="M1315 0h-300v-624H430V0H130v-1456h300v590h585v-590h300V0" id="aN"/><path fill="#33333f" d="M515-409l200-673h310L590 168c-66 202-236 321-472 250V199c127 7 198-15 230-107l34-89L3-1082h311" id="aO"/><g id="j"><use transform="matrix(0.010850694444444444,0,0,0.010850694444444444,0,0)" xlink:href="#aN"/><use transform="matrix(0.010850694444444444,0,0,0.010850694444444444,15.70095486111111,0)" xlink:href="#aO"/><use transform="matrix(0.010850694444444444,0,0,0.010850694444444444,26.85546875,0)" xlink:href="#ap"/><use transform="matrix(0.010850694444444444,0,0,0.010850694444444444,39.36631944444444,0)" xlink:href="#ax"/><use transform="matrix(0.010850694444444444,0,0,0.010850694444444444,47.47178819444444,0)" xlink:href="#ay"/><use transform="matrix(0.010850694444444444,0,0,0.010850694444444444,53.36371527777778,0)" xlink:href="#av"/></g><path fill="#33333f" d="M658-217c127 0 227-49 227-165 0-57-21-98-60-130-79-64-370-142-463-196-162-95-248-210-248-361 0-280 246-403 537-407 213-3 383 84 467 216 45 69 68 147 68 234H886c0-139-96-211-240-211-129 0-232 55-232 169 0 47 24 87 72 119s117 62 210 90c171 51 295 115 373 191s117 171 117 284c-2 272-237 411-528 404C331 13 78-135 69-458h301c0 161 96 241 288 241" id="aP"/><g id="k"><use transform="matrix(0.010850694444444444,0,0,0.010850694444444444,0,0)" xlink:href="#aP"/><use transform="matrix(0.010850694444444444,0,0,0.010850694444444444,13.661024305555555,0)" xlink:href="#aq"/><use transform="matrix(0.010850694444444444,0,0,0.010850694444444444,25.57508680555556,0)" xlink:href="#ao"/><use transform="matrix(0.010850694444444444,0,0,0.010850694444444444,44.81336805555556,0)" xlink:href="#aJ"/><use transform="matrix(0.010850694444444444,0,0,0.010850694444444444,57.32421875,0)" xlink:href="#ar"/><use transform="matrix(0.010850694444444444,0,0,0.010850694444444444,63.21614583333333,0)" xlink:href="#ay"/><use transform="matrix(0.010850694444444444,0,0,0.010850694444444444,69.10807291666667,0)" xlink:href="#as"/><use transform="matrix(0.010850694444444444,0,0,0.010850694444444444,81.55381944444444,0)" xlink:href="#az"/></g><path fill="#33333f" d="M687-225c189-1 272-84 286-260h300c-19 311-251 505-586 505C296 20 86-277 86-686c0-466 174-782 605-790 340-6 557 198 584 514H975c-15-183-92-268-284-268-100 0-173 38-225 108-63 84-76 264-76 443 0 157 24 272 72 345s122 109 225 109" id="aQ"/><path fill="#33333f" d="M673-507H110v-233h563v233" id="aR"/><g id="l"><use transform="matrix(0.011935763888888888,0,0,0.011935763888888888,0,0)" xlink:href="#aQ"/><use transform="matrix(0.011935763888888888,0,0,0.011935763888888888,15.99392361111111,0)" xlink:href="#aE"/><use transform="matrix(0.011935763888888888,0,0,0.011935763888888888,29.815538194444443,0)" xlink:href="#aH"/><use transform="matrix(0.011935763888888888,0,0,0.011935763888888888,42.38389756944444,0)" xlink:href="#aB"/><use transform="matrix(0.011935763888888888,0,0,0.011935763888888888,50.64344618055555,0)" xlink:href="#aR"/><use transform="matrix(0.011935763888888888,0,0,0.011935763888888888,60.12044270833334,0)" xlink:href="#aH"/><use transform="matrix(0.011935763888888888,0,0,0.011935763888888888,72.68880208333334,0)" xlink:href="#au"/><use transform="matrix(0.011935763888888888,0,0,0.011935763888888888,85.90169270833334,0)" xlink:href="#as"/><use transform="matrix(0.011935763888888888,0,0,0.011935763888888888,99.5920138888889,0)" xlink:href="#aH"/><use transform="matrix(0.011935763888888888,0,0,0.011935763888888888,112.1603732638889,0)" xlink:href="#ay"/><use transform="matrix(0.011935763888888888,0,0,0.011935763888888888,118.64149305555557,0)" xlink:href="#aB"/><use transform="matrix(0.011935763888888888,0,0,0.011935763888888888,126.90104166666669,0)" xlink:href="#ay"/><use transform="matrix(0.011935763888888888,0,0,0.011935763888888888,133.38216145833334,0)" xlink:href="#aC"/><use transform="matrix(0.011935763888888888,0,0,0.011935763888888888,145.5805121527778,0)" xlink:href="#au"/></g><path fill="#333" d="M23 0v-37h61v-169l-59 37v-38l62-41h46v211h57V0H23" id="aS"/><path fill="#333" d="M24 0v-54h51V0H24" id="aT"/><g id="m"><use transform="matrix(0.061728395061728364,0,0,0.061728395061728364,0,0)" xlink:href="#aS"/><use transform="matrix(0.061728395061728364,0,0,0.061728395061728364,12.345679012345673,0)" xlink:href="#aT"/></g><path fill="#333" d="M240-174c0 40-23 61-54 70L253 0h-59l-57-94H76V0H24v-248c93 4 217-23 216 74zM76-134c48-2 112 12 112-38 0-48-66-32-112-35v73" id="aU"/><path fill="#333" d="M140-251c80 0 125 45 125 126S219 4 139 4C58 4 15-44 15-125s44-126 125-126zm-1 214c52 0 73-35 73-88 0-50-21-86-72-86-52 0-73 35-73 86s22 88 72 88" id="aV"/><path fill="#333" d="M169-182c-1-43-94-46-97-3 18 66 151 10 154 114 3 95-165 93-204 36-6-8-10-19-12-30l50-8c3 46 112 56 116 5-17-69-150-10-154-114-4-87 153-88 188-35 5 8 8 18 10 28" id="aW"/><g id="n"><use transform="matrix(0.061728395061728364,0,0,0.061728395061728364,0,0)" xlink:href="#aU"/><use transform="matrix(0.061728395061728364,0,0,0.061728395061728364,15.987654320987646,0)" xlink:href="#aV"/><use transform="matrix(0.061728395061728364,0,0,0.061728395061728364,33.27160493827159,0)" xlink:href="#aW"/></g><path fill="#333" d="M182-182c0 78-84 86-111 141h115V0H12c-6-101 99-100 120-180 1-22-12-31-33-32-23 0-32 14-35 34l-49-3c5-45 32-70 84-70 51 0 83 22 83 69" id="aX"/><g id="o"><use transform="matrix(0.061728395061728364,0,0,0.061728395061728364,0,0)" xlink:href="#aX"/><use transform="matrix(0.061728395061728364,0,0,0.061728395061728364,12.345679012345673,0)" xlink:href="#aT"/></g><path fill="#333" d="M199 0l-22-63H83L61 0H9l90-248h61L250 0h-51zm-33-102l-36-108c-10 38-24 72-36 108h72" id="aY"/><path fill="#333" d="M88-194c31-1 46 15 58 34l-1-101h50l1 261h-48c-2-10 0-23-3-31C134-8 116 4 84 4 32 4 16-41 15-95c0-56 19-97 73-99zm17 164c33 0 40-30 41-66 1-37-9-64-41-64s-38 30-39 65c0 43 13 65 39 65" id="aZ"/><path fill="#333" d="M133-34C117-15 103 5 69 4 32 3 11-16 11-54c-1-60 55-63 116-61 1-26-3-47-28-47-18 1-26 9-28 27l-52-2c7-38 36-58 82-57s74 22 75 68l1 82c-1 14 12 18 25 15v27c-30 8-71 5-69-32zm-48 3c29 0 43-24 42-57-32 0-66-3-65 30 0 17 8 27 23 27" id="ba"/><path fill="#333" d="M137-138c1-29-70-34-71-4 15 46 118 7 119 86 1 83-164 76-172 9l43-7c4 19 20 25 44 25 33 8 57-30 24-41C81-84 22-81 20-136c-2-80 154-74 161-7" id="bb"/><path fill="#333" d="M123 10C108 53 80 86 19 72V37c35 8 53-11 59-39L3-190h52l48 148c12-52 28-100 44-148h51" id="bc"/><path fill="#333" d="M135-194c87-1 58 113 63 194h-50c-7-57 23-157-34-157-59 0-34 97-39 157H25l-1-190h47c2 12-1 28 3 38 12-26 28-41 61-42" id="bd"/><g id="p"><use transform="matrix(0.061728395061728364,0,0,0.061728395061728364,0,0)" xlink:href="#aY"/><use transform="matrix(0.061728395061728364,0,0,0.061728395061728364,15.987654320987646,0)" xlink:href="#aZ"/><use transform="matrix(0.061728395061728364,0,0,0.061728395061728364,29.506172839506156,0)" xlink:href="#ba"/><use transform="matrix(0.061728395061728364,0,0,0.061728395061728364,41.85185185185183,0)" xlink:href="#bb"/><use transform="matrix(0.061728395061728364,0,0,0.061728395061728364,54.1975308641975,0)" xlink:href="#bc"/><use transform="matrix(0.061728395061728364,0,0,0.061728395061728364,66.54320987654317,0)" xlink:href="#bd"/></g><path fill="#333" d="M128-127c34 4 56 21 59 58 7 91-148 94-172 28-4-9-6-17-7-26l51-5c1 24 16 35 40 36 23 0 39-12 38-36-1-31-31-36-65-34v-40c32 2 59-3 59-33 0-20-13-33-34-33s-33 13-35 32l-50-3c6-44 37-68 86-68 50 0 83 20 83 66 0 35-22 52-53 58" id="be"/><g id="q"><use transform="matrix(0.06790123456790119,0,0,0.06790123456790119,0,0)" xlink:href="#be"/><use transform="matrix(0.06790123456790119,0,0,0.06790123456790119,13.580246913580238,0)" xlink:href="#aT"/></g><path fill="#333" d="M230 0l2-204L168 0h-37L68-204 70 0H24v-248h70l56 185 57-185h69V0h-46" id="bf"/><path fill="#333" d="M136-208V0H84v-208H4v-40h212v40h-80" id="bg"/><path fill="#333" d="M24 0v-248h195v40H76v63h132v40H76v65h150V0H24" id="bh"/><g id="r"><use transform="matrix(0.06790123456790119,0,0,0.06790123456790119,0,0)" xlink:href="#aW"/><use transform="matrix(0.06790123456790119,0,0,0.06790123456790119,16.296296296296287,0)" xlink:href="#bf"/><use transform="matrix(0.06790123456790119,0,0,0.06790123456790119,36.59876543209874,0)" xlink:href="#aV"/><use transform="matrix(0.06790123456790119,0,0,0.06790123456790119,55.61111111111108,0)" xlink:href="#bg"/><use transform="matrix(0.06790123456790119,0,0,0.06790123456790119,70.48148148148144,0)" xlink:href="#bh"/></g><path fill="#333" d="M165-50V0h-47v-50H5v-38l105-160h55v161h33v37h-33zm-47-37l2-116L46-87h72" id="bi"/><g id="s"><use transform="matrix(0.061728395061728364,0,0,0.061728395061728364,0,0)" xlink:href="#bi"/><use transform="matrix(0.061728395061728364,0,0,0.061728395061728364,12.345679012345673,0)" xlink:href="#aT"/></g><path fill="#333" d="M182-130c37 4 62 22 62 59C244 23 116-4 24 0v-248c84 5 203-23 205 63 0 31-19 50-47 55zM76-148c40-3 101 13 101-30 0-44-60-28-101-31v61zm0 110c48-3 116 14 116-37 0-48-69-32-116-35v72" id="bj"/><path fill="#333" d="M110-194c64 0 96 36 96 99 0 64-35 99-97 99-61 0-95-36-95-99 0-62 34-99 96-99zm-1 164c35 0 45-28 45-65 0-40-10-65-43-65-34 0-45 26-45 65 0 36 10 65 43 65" id="bk"/><path fill="#333" d="M135-150c-39-12-60 13-60 57V0H25l-1-190h47c2 13-1 29 3 40 6-28 27-53 61-41v41" id="bl"/><path fill="#333" d="M185-48c-13 30-37 53-82 52C43 2 14-33 14-96s30-98 90-98c62 0 83 45 84 108H66c0 31 8 55 39 56 18 0 30-7 34-22zm-45-69c5-46-57-63-70-21-2 6-4 13-4 21h74" id="bm"/><path fill="#333" d="M25 0v-261h50V0H25" id="bn"/><path fill="#333" d="M25-224v-37h50v37H25zM25 0v-190h50V0H25" id="bo"/><path fill="#333" d="M14-72v-43h91v43H14" id="bp"/><g id="t"><use transform="matrix(0.061728395061728364,0,0,0.061728395061728364,0,0)" xlink:href="#bj"/><use transform="matrix(0.061728395061728364,0,0,0.061728395061728364,15.987654320987646,0)" xlink:href="#bk"/><use transform="matrix(0.061728395061728364,0,0,0.061728395061728364,29.506172839506156,0)" xlink:href="#bl"/><use transform="matrix(0.061728395061728364,0,0,0.061728395061728364,38.148148148148124,0)" xlink:href="#aZ"/><use transform="matrix(0.061728395061728364,0,0,0.061728395061728364,51.666666666666636,0)" xlink:href="#bm"/><use transform="matrix(0.061728395061728364,0,0,0.061728395061728364,64.01234567901231,0)" xlink:href="#bl"/><use transform="matrix(0.061728395061728364,0,0,0.061728395061728364,72.65432098765429,0)" xlink:href="#bn"/><use transform="matrix(0.061728395061728364,0,0,0.061728395061728364,78.82716049382712,0)" xlink:href="#bo"/><use transform="matrix(0.061728395061728364,0,0,0.061728395061728364,84.99999999999996,0)" xlink:href="#bd"/><use transform="matrix(0.061728395061728364,0,0,0.061728395061728364,98.51851851851848,0)" xlink:href="#bm"/><use transform="matrix(0.061728395061728364,0,0,0.061728395061728364,110.86419753086415,0)" xlink:href="#bp"/><use transform="matrix(0.06790123456790119,0,0,0.06790123456790119,118.20987654320982,0)" xlink:href="#aW"/><use transform="matrix(0.06790123456790119,0,0,0.06790123456790119,134.5061728395061,0)" xlink:href="#bf"/><use transform="matrix(0.06790123456790119,0,0,0.06790123456790119,154.80864197530855,0)" xlink:href="#aV"/><use transform="matrix(0.06790123456790119,0,0,0.06790123456790119,173.82098765432087,0)" xlink:href="#bg"/><use transform="matrix(0.06790123456790119,0,0,0.06790123456790119,188.69135802469123,0)" xlink:href="#bh"/></g><path fill="#333" d="M139-81c0-46-55-55-73-27H18l9-140h149v37H72l-4 63c44-38 133-4 122 66C201 21 21 35 11-62l49-4c5 18 15 30 39 30 26 0 40-18 40-45" id="bq"/><g id="u"><use transform="matrix(0.061728395061728364,0,0,0.061728395061728364,0,0)" xlink:href="#bq"/><use transform="matrix(0.061728395061728364,0,0,0.061728395061728364,12.345679012345673,0)" xlink:href="#aT"/></g><path fill="#333" d="M24-248c93 1 206-16 204 79-1 75-69 88-152 82V0H24v-248zm52 121c47 0 100 7 100-41 0-47-54-39-100-39v80" id="br"/><path fill="#333" d="M220-157c-53 9-28 100-34 157h-49v-107c1-27-5-49-29-50C55-147 81-57 75 0H25l-1-190h47c2 12-1 28 3 38 10-53 101-56 108 0 13-22 24-43 59-42 82 1 51 116 57 194h-49v-107c-1-25-5-48-29-50" id="bs"/><path fill="#333" d="M121-226c-27-7-43 5-38 36h38v33H83V0H34v-157H6v-33h28c-9-59 32-81 87-68v32" id="bt"/><path fill="#333" d="M115-3C79 11 28 4 28-45v-112H4v-33h27l15-45h31v45h36v33H77v99c-1 23 16 31 38 25v30" id="bu"/><g id="v"><use transform="matrix(0.061728395061728364,0,0,0.061728395061728364,0,0)" xlink:href="#br"/><use transform="matrix(0.061728395061728364,0,0,0.061728395061728364,14.814814814814808,0)" xlink:href="#bk"/><use transform="matrix(0.061728395061728364,0,0,0.061728395061728364,28.33333333333332,0)" xlink:href="#bn"/><use transform="matrix(0.061728395061728364,0,0,0.061728395061728364,34.506172839506156,0)" xlink:href="#bc"/><use transform="matrix(0.061728395061728364,0,0,0.061728395061728364,46.85185185185183,0)" xlink:href="#bd"/><use transform="matrix(0.061728395061728364,0,0,0.061728395061728364,60.370370370370345,0)" xlink:href="#bk"/><use transform="matrix(0.061728395061728364,0,0,0.061728395061728364,73.88888888888886,0)" xlink:href="#bs"/><use transform="matrix(0.061728395061728364,0,0,0.061728395061728364,93.64197530864193,0)" xlink:href="#bp"/><use transform="matrix(0.061728395061728364,0,0,0.061728395061728364,100.9876543209876,0)" xlink:href="#bt"/><use transform="matrix(0.061728395061728364,0,0,0.061728395061728364,108.33333333333327,0)" xlink:href="#bo"/><use transform="matrix(0.061728395061728364,0,0,0.061728395061728364,114.5061728395061,0)" xlink:href="#bu"/><use transform="matrix(0.061728395061728364,0,0,0.061728395061728364,121.85185185185178,0)" xlink:href="#bp"/><use transform="matrix(0.061728395061728364,0,0,0.061728395061728364,129.19753086419746,0)" xlink:href="#bb"/><use transform="matrix(0.061728395061728364,0,0,0.061728395061728364,141.54320987654313,0)" xlink:href="#bs"/><use transform="matrix(0.061728395061728364,0,0,0.061728395061728364,161.2962962962962,0)" xlink:href="#bk"/><use transform="matrix(0.061728395061728364,0,0,0.061728395061728364,174.8148148148147,0)" xlink:href="#bu"/><use transform="matrix(0.061728395061728364,0,0,0.061728395061728364,182.16049382716037,0)" xlink:href="#bm"/></g><path fill="#333" d="M115-159c48 0 72 30 72 78 0 54-30 85-83 85-64 0-91-50-91-122 0-98 58-163 141-120 15 8 21 24 27 44l-47 6c-5-31-48-31-61-4-7 14-11 33-11 60 9-17 28-27 53-27zM102-35c24 0 36-20 36-45s-11-43-37-43c-23 0-36 14-36 38 0 27 11 50 37 50" id="bv"/><g id="w"><use transform="matrix(0.061728395061728364,0,0,0.061728395061728364,0,0)" xlink:href="#bv"/><use transform="matrix(0.061728395061728364,0,0,0.061728395061728364,12.345679012345673,0)" xlink:href="#aT"/></g><path fill="#333" d="M275 0h-61l-44-196L126 0H64L0-248h53L97-49l45-199h58l43 199 44-199h52" id="bw"/><g id="x"><use transform="matrix(0.061728395061728364,0,0,0.061728395061728364,0,0)" xlink:href="#br"/><use transform="matrix(0.061728395061728364,0,0,0.061728395061728364,14.814814814814808,0)" xlink:href="#bl"/><use transform="matrix(0.061728395061728364,0,0,0.061728395061728364,23.456790123456777,0)" xlink:href="#bk"/><use transform="matrix(0.061728395061728364,0,0,0.061728395061728364,36.97530864197529,0)" xlink:href="#bw"/><use transform="matrix(0.061728395061728364,0,0,0.061728395061728364,57.901234567901206,0)" xlink:href="#aW"/><use transform="matrix(0.061728395061728364,0,0,0.061728395061728364,72.71604938271601,0)" xlink:href="#bc"/><use transform="matrix(0.061728395061728364,0,0,0.061728395061728364,85.06172839506168,0)" xlink:href="#bs"/></g><path fill="#333" d="M52 0c1-96 47-148 87-207H15v-41h169v40c-36 62-79 113-81 208H52" id="bx"/><g id="y"><use transform="matrix(0.061728395061728364,0,0,0.061728395061728364,0,0)" xlink:href="#bx"/><use transform="matrix(0.061728395061728364,0,0,0.061728395061728364,12.345679012345673,0)" xlink:href="#aT"/></g><path fill="#333" d="M24 0v-248h52V0H24" id="by"/><path fill="#333" d="M76-208v77h127v40H76V0H24v-248h183v40H76" id="bz"/><g id="z"><use transform="matrix(0.061728395061728364,0,0,0.061728395061728364,0,0)" xlink:href="#aW"/><use transform="matrix(0.061728395061728364,0,0,0.061728395061728364,14.814814814814808,0)" xlink:href="#bs"/><use transform="matrix(0.061728395061728364,0,0,0.061728395061728364,34.567901234567884,0)" xlink:href="#bk"/><use transform="matrix(0.061728395061728364,0,0,0.061728395061728364,48.086419753086396,0)" xlink:href="#bu"/><use transform="matrix(0.061728395061728364,0,0,0.061728395061728364,55.43209876543207,0)" xlink:href="#bm"/><use transform="matrix(0.061728395061728364,0,0,0.061728395061728364,67.77777777777774,0)" xlink:href="#bp"/><use transform="matrix(0.061728395061728364,0,0,0.061728395061728364,75.12345679012341,0)" xlink:href="#by"/><use transform="matrix(0.061728395061728364,0,0,0.061728395061728364,81.29629629629625,0)" xlink:href="#br"/><use transform="matrix(0.061728395061728364,0,0,0.061728395061728364,96.11111111111106,0)" xlink:href="#bz"/></g><path fill="#333" d="M138-131c27 9 52 24 51 61 0 53-36 74-89 74S11-19 11-69c0-35 22-54 51-61-78-25-46-121 38-121 51 0 83 19 83 66 0 30-18 49-45 54zm-38-16c24 0 32-13 32-36 1-23-11-34-32-34-22 0-33 12-32 34 0 22 9 36 32 36zm1 116c27 0 37-17 37-43 0-25-13-39-39-39-24 0-37 15-37 40 0 27 11 42 39 42" id="bA"/><g id="A"><use transform="matrix(0.061728395061728364,0,0,0.061728395061728364,0,0)" xlink:href="#bA"/><use transform="matrix(0.061728395061728364,0,0,0.061728395061728364,12.345679012345673,0)" xlink:href="#aT"/></g><path fill="#333" d="M24 0v-248h52v208h133V0H24" id="bB"/><g id="B"><use transform="matrix(0.061728395061728364,0,0,0.061728395061728364,0,0)" xlink:href="#bB"/><use transform="matrix(0.061728395061728364,0,0,0.061728395061728364,13.518518518518512,0)" xlink:href="#bh"/><use transform="matrix(0.061728395061728364,0,0,0.061728395061728364,28.33333333333332,0)" xlink:href="#bh"/></g><path fill="#333" d="M99-251c69 0 84 53 88 123 5 99-61 162-144 118-15-8-21-25-26-45l46-6c4 31 50 33 63 7 7-15 12-36 12-60-9 18-29 28-54 28-48 0-72-32-72-82 0-55 31-83 87-83zm-1 128c24 0 37-16 37-39 0-27-10-51-37-51-25 0-35 19-35 45 0 25 10 45 35 45" id="bC"/><g id="C"><use transform="matrix(0.061728395061728364,0,0,0.061728395061728364,0,0)" xlink:href="#bC"/><use transform="matrix(0.061728395061728364,0,0,0.061728395061728364,12.345679012345673,0)" xlink:href="#aT"/></g><path fill="#333" d="M24-248c120-7 223 5 221 122C244-46 201 0 124 0H24v-248zM76-40c74 7 117-18 117-86 0-67-45-88-117-82v168" id="bD"/><g id="D"><use transform="matrix(0.061728395061728364,0,0,0.061728395061728364,0,0)" xlink:href="#aW"/><use transform="matrix(0.061728395061728364,0,0,0.061728395061728364,14.814814814814808,0)" xlink:href="#bf"/><use transform="matrix(0.061728395061728364,0,0,0.061728395061728364,33.27160493827159,0)" xlink:href="#aV"/><use transform="matrix(0.061728395061728364,0,0,0.061728395061728364,50.55555555555553,0)" xlink:href="#bj"/><use transform="matrix(0.061728395061728364,0,0,0.061728395061728364,66.54320987654317,0)" xlink:href="#bD"/></g><path fill="#333" d="M101-251c68 0 84 54 84 127C185-50 166 4 99 4S15-52 14-124c-1-75 17-127 87-127zm-1 216c37-5 36-46 36-89s4-89-36-89c-39 0-36 45-36 89 0 43-3 85 36 89" id="bE"/><g id="E"><use transform="matrix(0.061728395061728364,0,0,0.061728395061728364,0,0)" xlink:href="#aS"/><use transform="matrix(0.061728395061728364,0,0,0.061728395061728364,12.345679012345673,0)" xlink:href="#bE"/><use transform="matrix(0.061728395061728364,0,0,0.061728395061728364,24.691358024691347,0)" xlink:href="#aT"/></g><path fill="#333" d="M67-125c0 54 23 88 75 88 28 0 53-7 68-21v-34h-60v-39h108v91C232-14 192 4 140 4 58 4 20-42 15-125 8-236 126-280 215-234c19 10 29 26 37 47l-47 15c-11-23-29-39-63-39-53 1-75 33-75 86" id="bF"/><g id="F"><use transform="matrix(0.061728395061728364,0,0,0.061728395061728364,0,0)" xlink:href="#bF"/><use transform="matrix(0.061728395061728364,0,0,0.061728395061728364,17.283950617283942,0)" xlink:href="#bp"/><use transform="matrix(0.061728395061728364,0,0,0.061728395061728364,24.62962962962962,0)" xlink:href="#bb"/><use transform="matrix(0.061728395061728364,0,0,0.061728395061728364,36.97530864197529,0)" xlink:href="#bs"/><use transform="matrix(0.061728395061728364,0,0,0.061728395061728364,56.728395061728364,0)" xlink:href="#bk"/><use transform="matrix(0.061728395061728364,0,0,0.061728395061728364,70.24691358024688,0)" xlink:href="#bu"/><use transform="matrix(0.061728395061728364,0,0,0.061728395061728364,77.59259259259255,0)" xlink:href="#bm"/></g><g id="G"><use transform="matrix(0.061728395061728364,0,0,0.061728395061728364,0,0)" xlink:href="#aS"/><use transform="matrix(0.061728395061728364,0,0,0.061728395061728364,11.111111111111107,0)" xlink:href="#aS"/><use transform="matrix(0.061728395061728364,0,0,0.061728395061728364,23.45679012345678,0)" xlink:href="#aT"/></g><path fill="#333" d="M67-125c0 53 21 87 73 88 37 1 54-22 65-47l45 17C233-25 199 4 140 4 58 4 20-42 15-125 8-235 124-281 211-232c18 10 29 29 36 50l-46 12c-8-25-30-41-62-41-52 0-71 34-72 86" id="bG"/><g id="H"><use transform="matrix(0.061728395061728364,0,0,0.061728395061728364,0,0)" xlink:href="#bG"/><use transform="matrix(0.061728395061728364,0,0,0.061728395061728364,15.987654320987646,0)" xlink:href="#bG"/><use transform="matrix(0.061728395061728364,0,0,0.061728395061728364,31.975308641975293,0)" xlink:href="#aU"/></g><g id="I"><use transform="matrix(0.061728395061728364,0,0,0.061728395061728364,0,0)" xlink:href="#aS"/><use transform="matrix(0.061728395061728364,0,0,0.061728395061728364,12.345679012345673,0)" xlink:href="#aX"/><use transform="matrix(0.061728395061728364,0,0,0.061728395061728364,24.691358024691347,0)" xlink:href="#aT"/></g><path fill="#333" d="M147 0H94L2-248h55l64 206c17-72 42-137 63-206h54" id="bH"/><path fill="#333" d="M140-251c80 0 125 45 125 126 0 70-33 111-92 124 6 28 34 38 68 31l-1 36C177 83 129 55 120 2 51-6 15-50 15-125c0-81 44-126 125-126zm-1 214c52 0 73-35 73-88 0-50-21-86-72-86-52 0-73 35-73 86s22 88 72 88" id="bI"/><g id="J"><use transform="matrix(0.061728395061728364,0,0,0.061728395061728364,0,0)" xlink:href="#bB"/><use transform="matrix(0.061728395061728364,0,0,0.061728395061728364,11.851851851851846,0)" xlink:href="#bH"/><use transform="matrix(0.061728395061728364,0,0,0.061728395061728364,26.666666666666654,0)" xlink:href="#bI"/><use transform="matrix(0.061728395061728364,0,0,0.061728395061728364,43.95061728395059,0)" xlink:href="#bp"/><use transform="matrix(0.061728395061728364,0,0,0.061728395061728364,51.29629629629627,0)" xlink:href="#bb"/><use transform="matrix(0.061728395061728364,0,0,0.061728395061728364,63.641975308641946,0)" xlink:href="#bs"/><use transform="matrix(0.061728395061728364,0,0,0.061728395061728364,83.39506172839502,0)" xlink:href="#bk"/><use transform="matrix(0.061728395061728364,0,0,0.061728395061728364,96.91358024691354,0)" xlink:href="#bu"/><use transform="matrix(0.061728395061728364,0,0,0.061728395061728364,104.25925925925921,0)" xlink:href="#bm"/></g><g id="K"><use transform="matrix(0.061728395061728364,0,0,0.061728395061728364,0,0)" xlink:href="#aS"/><use transform="matrix(0.061728395061728364,0,0,0.061728395061728364,12.345679012345673,0)" xlink:href="#be"/><use transform="matrix(0.061728395061728364,0,0,0.061728395061728364,24.691358024691347,0)" xlink:href="#aT"/></g><path fill="#333" d="M135-194c52 0 70 43 70 98 0 56-19 99-73 100-30 1-46-15-58-35L72 0H24l1-261h50v104c11-23 29-37 60-37zM114-30c31 0 40-27 40-66 0-37-7-63-39-63s-41 28-41 65c0 36 8 64 40 64" id="bJ"/><g id="L"><use transform="matrix(0.061728395061728364,0,0,0.061728395061728364,0,0)" xlink:href="#aY"/><use transform="matrix(0.061728395061728364,0,0,0.061728395061728364,15.987654320987646,0)" xlink:href="#bb"/><use transform="matrix(0.061728395061728364,0,0,0.061728395061728364,28.33333333333332,0)" xlink:href="#bb"/><use transform="matrix(0.061728395061728364,0,0,0.061728395061728364,40.679012345679,0)" xlink:href="#bm"/><use transform="matrix(0.061728395061728364,0,0,0.061728395061728364,53.02469135802467,0)" xlink:href="#bs"/><use transform="matrix(0.061728395061728364,0,0,0.061728395061728364,72.77777777777774,0)" xlink:href="#bJ"/><use transform="matrix(0.061728395061728364,0,0,0.061728395061728364,86.29629629629625,0)" xlink:href="#bn"/><use transform="matrix(0.061728395061728364,0,0,0.061728395061728364,92.46913580246908,0)" xlink:href="#bm"/><use transform="matrix(0.061728395061728364,0,0,0.061728395061728364,104.81481481481475,0)" xlink:href="#aZ"/><use transform="matrix(0.061728395061728364,0,0,0.061728395061728364,118.33333333333326,0)" xlink:href="#bp"/><use transform="matrix(0.061728395061728364,0,0,0.061728395061728364,125.67901234567893,0)" xlink:href="#bb"/><use transform="matrix(0.061728395061728364,0,0,0.061728395061728364,138.0246913580246,0)" xlink:href="#bs"/><use transform="matrix(0.061728395061728364,0,0,0.061728395061728364,157.77777777777766,0)" xlink:href="#bk"/><use transform="matrix(0.061728395061728364,0,0,0.061728395061728364,171.29629629629616,0)" xlink:href="#bu"/><use transform="matrix(0.061728395061728364,0,0,0.061728395061728364,178.64197530864183,0)" xlink:href="#bm"/></g><g id="M"><use transform="matrix(0.06172839506172839,0,0,0.06172839506172839,0,0)" xlink:href="#aS"/><use transform="matrix(0.06172839506172839,0,0,0.06172839506172839,12.345679012345679,0)" xlink:href="#aT"/></g><path fill="#333" d="M238-95c0 69-44 99-111 99C63 4 22-25 22-93v-155h51v151c-1 38 19 59 55 60 90 1 49-130 58-211h52v153" id="bK"/><g id="N"><use transform="matrix(0.06172839506172839,0,0,0.06172839506172839,0,0)" xlink:href="#aU"/><use transform="matrix(0.06172839506172839,0,0,0.06172839506172839,15.987654320987653,0)" xlink:href="#bK"/><use transform="matrix(0.06172839506172839,0,0,0.06172839506172839,31.975308641975307,0)" xlink:href="#aW"/></g><g id="O"><use transform="matrix(0.06172839506172839,0,0,0.06172839506172839,0,0)" xlink:href="#aX"/><use transform="matrix(0.06172839506172839,0,0,0.06172839506172839,12.345679012345679,0)" xlink:href="#aT"/></g><path fill="#333" d="M175 0L67-191c6 58 2 128 3 191H24v-248h59L193-55c-6-58-2-129-3-193h46V0h-61" id="bL"/><g id="P"><use transform="matrix(0.06172839506172839,0,0,0.06172839506172839,0,0)" xlink:href="#bL"/><use transform="matrix(0.06172839506172839,0,0,0.06172839506172839,15.987654320987653,0)" xlink:href="#bG"/></g><g id="Q"><use transform="matrix(0.06172839506172839,0,0,0.06172839506172839,0,0)" xlink:href="#be"/><use transform="matrix(0.06172839506172839,0,0,0.06172839506172839,12.345679012345679,0)" xlink:href="#aT"/></g><g id="R"><use transform="matrix(0.06172839506172839,0,0,0.06172839506172839,0,0)" xlink:href="#bh"/><use transform="matrix(0.06172839506172839,0,0,0.06172839506172839,14.814814814814813,0)" xlink:href="#bL"/><use transform="matrix(0.06172839506172839,0,0,0.06172839506172839,30.80246913580247,0)" xlink:href="#bL"/></g><g id="S"><use transform="matrix(0.06172839506172839,0,0,0.06172839506172839,0,0)" xlink:href="#bi"/><use transform="matrix(0.06172839506172839,0,0,0.06172839506172839,12.345679012345679,0)" xlink:href="#aT"/></g><g id="T"><use transform="matrix(0.06172839506172839,0,0,0.06172839506172839,0,0)" xlink:href="#bG"/><use transform="matrix(0.06172839506172839,0,0,0.06172839506172839,15.987654320987653,0)" xlink:href="#bL"/><use transform="matrix(0.06172839506172839,0,0,0.06172839506172839,31.975308641975307,0)" xlink:href="#bL"/></g><g id="U"><use transform="matrix(0.06172839506172839,0,0,0.06172839506172839,0,0)" xlink:href="#bq"/><use transform="matrix(0.06172839506172839,0,0,0.06172839506172839,12.345679012345679,0)" xlink:href="#aT"/></g><g id="V"><use transform="matrix(0.06172839506172839,0,0,0.06172839506172839,0,0)" xlink:href="#aV"/><use transform="matrix(0.06172839506172839,0,0,0.06172839506172839,17.28395061728395,0)" xlink:href="#aW"/><use transform="matrix(0.06172839506172839,0,0,0.06172839506172839,32.09876543209876,0)" xlink:href="#aW"/></g><g id="W"><use transform="matrix(0.06172839506172839,0,0,0.06172839506172839,0,0)" xlink:href="#bv"/><use transform="matrix(0.06172839506172839,0,0,0.06172839506172839,12.345679012345679,0)" xlink:href="#aT"/></g><path fill="#333" d="M147 0L96-86 75-71V0H25v-261h50v150l67-79h53l-66 74L201 0h-54" id="bM"/><g id="X"><use transform="matrix(0.06172839506172839,0,0,0.06172839506172839,0,0)" xlink:href="#bg"/><use transform="matrix(0.06172839506172839,0,0,0.06172839506172839,11.851851851851851,0)" xlink:href="#bk"/><use transform="matrix(0.06172839506172839,0,0,0.06172839506172839,25.370370370370367,0)" xlink:href="#bs"/><use transform="matrix(0.06172839506172839,0,0,0.06172839506172839,45.123456790123456,0)" xlink:href="#bm"/><use transform="matrix(0.06172839506172839,0,0,0.06172839506172839,57.46913580246913,0)" xlink:href="#bM"/><use transform="matrix(0.06172839506172839,0,0,0.06172839506172839,69.81481481481481,0)" xlink:href="#bp"/><use transform="matrix(0.06172839506172839,0,0,0.06172839506172839,77.1604938271605,0)" xlink:href="#bB"/><use transform="matrix(0.06172839506172839,0,0,0.06172839506172839,90.67901234567901,0)" xlink:href="#bo"/><use transform="matrix(0.06172839506172839,0,0,0.06172839506172839,96.85185185185185,0)" xlink:href="#bd"/><use transform="matrix(0.06172839506172839,0,0,0.06172839506172839,110.37037037037037,0)" xlink:href="#bM"/></g><g id="Y"><use transform="matrix(0.06172839506172839,0,0,0.06172839506172839,0,0)" xlink:href="#bx"/><use transform="matrix(0.06172839506172839,0,0,0.06172839506172839,12.345679012345679,0)" xlink:href="#aT"/></g><g id="Z"><use transform="matrix(0.06172839506172839,0,0,0.06172839506172839,0,0)" xlink:href="#bL"/><use transform="matrix(0.06172839506172839,0,0,0.06172839506172839,15.987654320987653,0)" xlink:href="#bm"/><use transform="matrix(0.06172839506172839,0,0,0.06172839506172839,28.333333333333332,0)" xlink:href="#ba"/><use transform="matrix(0.06172839506172839,0,0,0.06172839506172839,40.67901234567901,0)" xlink:href="#bl"/><use transform="matrix(0.06172839506172839,0,0,0.06172839506172839,49.32098765432099,0)" xlink:href="#bp"/><use transform="matrix(0.06172839506172839,0,0,0.06172839506172839,56.666666666666664,0)" xlink:href="#bf"/><use transform="matrix(0.06172839506172839,0,0,0.06172839506172839,75.12345679012346,0)" xlink:href="#bo"/><use transform="matrix(0.06172839506172839,0,0,0.06172839506172839,81.29629629629629,0)" xlink:href="#bb"/><use transform="matrix(0.06172839506172839,0,0,0.06172839506172839,93.64197530864197,0)" xlink:href="#bb"/></g><g id="aa"><use transform="matrix(0.06172839506172839,0,0,0.06172839506172839,0,0)" xlink:href="#aW"/><use transform="matrix(0.06172839506172839,0,0,0.06172839506172839,14.814814814814813,0)" xlink:href="#bf"/><use transform="matrix(0.06172839506172839,0,0,0.06172839506172839,33.2716049382716,0)" xlink:href="#aV"/><use transform="matrix(0.06172839506172839,0,0,0.06172839506172839,50.55555555555555,0)" xlink:href="#bg"/><use transform="matrix(0.06172839506172839,0,0,0.06172839506172839,64.07407407407406,0)" xlink:href="#bh"/><use transform="matrix(0.06172839506172839,0,0,0.06172839506172839,78.88888888888887,0)" xlink:href="#bp"/><use transform="matrix(0.06172839506172839,0,0,0.06172839506172839,86.23456790123456,0)" xlink:href="#bh"/><use transform="matrix(0.06172839506172839,0,0,0.06172839506172839,101.04938271604937,0)" xlink:href="#bL"/><use transform="matrix(0.06172839506172839,0,0,0.06172839506172839,117.03703703703702,0)" xlink:href="#bL"/></g><g id="ab"><use transform="matrix(0.06172839506172839,0,0,0.06172839506172839,0,0)" xlink:href="#aW"/><use transform="matrix(0.06172839506172839,0,0,0.06172839506172839,14.814814814814813,0)" xlink:href="#bf"/><use transform="matrix(0.06172839506172839,0,0,0.06172839506172839,33.2716049382716,0)" xlink:href="#aV"/><use transform="matrix(0.06172839506172839,0,0,0.06172839506172839,50.55555555555555,0)" xlink:href="#bg"/><use transform="matrix(0.06172839506172839,0,0,0.06172839506172839,64.07407407407406,0)" xlink:href="#bh"/><use transform="matrix(0.06172839506172839,0,0,0.06172839506172839,78.88888888888887,0)" xlink:href="#bp"/><use transform="matrix(0.06172839506172839,0,0,0.06172839506172839,86.23456790123456,0)" xlink:href="#bg"/><use transform="matrix(0.06172839506172839,0,0,0.06172839506172839,98.0864197530864,0)" xlink:href="#bk"/><use transform="matrix(0.06172839506172839,0,0,0.06172839506172839,111.60493827160492,0)" xlink:href="#bs"/><use transform="matrix(0.06172839506172839,0,0,0.06172839506172839,131.358024691358,0)" xlink:href="#bm"/><use transform="matrix(0.06172839506172839,0,0,0.06172839506172839,143.70370370370367,0)" xlink:href="#bM"/></g><g id="ac"><use transform="matrix(0.06172839506172839,0,0,0.06172839506172839,0,0)" xlink:href="#bj"/><use transform="matrix(0.06172839506172839,0,0,0.06172839506172839,15.987654320987653,0)" xlink:href="#aU"/><use transform="matrix(0.06172839506172839,0,0,0.06172839506172839,31.975308641975307,0)" xlink:href="#bz"/></g><path fill="#333" d="M190-63c-7 42-38 67-86 67-59 0-84-38-90-98-12-110 154-137 174-36l-49 2c-2-19-15-32-35-32-30 0-35 28-38 64-6 74 65 87 74 30" id="bN"/><path fill="#333" d="M195-6C206 82 75 100 31 46c-4-6-6-13-8-21l49-6c3 16 16 24 34 25 40 0 42-37 40-79-11 22-30 35-61 35-53 0-70-43-70-97 0-56 18-96 73-97 30 0 46 14 59 34l2-30h47zm-90-29c32 0 41-27 41-63 0-35-9-62-40-62-32 0-39 29-40 63 0 36 9 62 39 62" id="bO"/><g id="ad"><use transform="matrix(0.06172839506172839,0,0,0.06172839506172839,0,0)" xlink:href="#bj"/><use transform="matrix(0.06172839506172839,0,0,0.06172839506172839,15.987654320987653,0)" xlink:href="#ba"/><use transform="matrix(0.06172839506172839,0,0,0.06172839506172839,28.333333333333332,0)" xlink:href="#bn"/><use transform="matrix(0.06172839506172839,0,0,0.06172839506172839,34.50617283950617,0)" xlink:href="#ba"/><use transform="matrix(0.06172839506172839,0,0,0.06172839506172839,46.85185185185185,0)" xlink:href="#bd"/><use transform="matrix(0.06172839506172839,0,0,0.06172839506172839,60.37037037037037,0)" xlink:href="#bN"/><use transform="matrix(0.06172839506172839,0,0,0.06172839506172839,72.71604938271605,0)" xlink:href="#bm"/><use transform="matrix(0.06172839506172839,0,0,0.06172839506172839,85.06172839506173,0)" xlink:href="#aZ"/><use transform="matrix(0.06172839506172839,0,0,0.06172839506172839,98.58024691358025,0)" xlink:href="#bp"/><use transform="matrix(0.06172839506172839,0,0,0.06172839506172839,105.92592592592594,0)" xlink:href="#bj"/><use transform="matrix(0.06172839506172839,0,0,0.06172839506172839,121.9135802469136,0)" xlink:href="#ba"/><use transform="matrix(0.06172839506172839,0,0,0.06172839506172839,134.25925925925927,0)" xlink:href="#bO"/><use transform="matrix(0.06172839506172839,0,0,0.06172839506172839,147.77777777777777,0)" xlink:href="#bO"/><use transform="matrix(0.06172839506172839,0,0,0.06172839506172839,161.29629629629628,0)" xlink:href="#bo"/><use transform="matrix(0.06172839506172839,0,0,0.06172839506172839,167.4691358024691,0)" xlink:href="#bd"/><use transform="matrix(0.06172839506172839,0,0,0.06172839506172839,180.98765432098762,0)" xlink:href="#bO"/></g><path fill="#333" d="M128 0H69L1-190h53L99-40l48-150h52" id="bP"/><g id="ae"><use transform="matrix(0.06172839506172839,0,0,0.06172839506172839,0,0)" xlink:href="#aV"/><use transform="matrix(0.06172839506172839,0,0,0.06172839506172839,17.28395061728395,0)" xlink:href="#bP"/><use transform="matrix(0.06172839506172839,0,0,0.06172839506172839,29.629629629629626,0)" xlink:href="#bm"/><use transform="matrix(0.06172839506172839,0,0,0.06172839506172839,41.9753086419753,0)" xlink:href="#bl"/><use transform="matrix(0.06172839506172839,0,0,0.06172839506172839,50.61728395061728,0)" xlink:href="#bp"/><use transform="matrix(0.06172839506172839,0,0,0.06172839506172839,57.962962962962955,0)" xlink:href="#bj"/><use transform="matrix(0.06172839506172839,0,0,0.06172839506172839,73.9506172839506,0)" xlink:href="#ba"/><use transform="matrix(0.06172839506172839,0,0,0.06172839506172839,86.29629629629629,0)" xlink:href="#bO"/><use transform="matrix(0.06172839506172839,0,0,0.06172839506172839,99.81481481481481,0)" xlink:href="#bO"/><use transform="matrix(0.06172839506172839,0,0,0.06172839506172839,113.33333333333333,0)" xlink:href="#bo"/><use transform="matrix(0.06172839506172839,0,0,0.06172839506172839,119.50617283950616,0)" xlink:href="#bd"/><use transform="matrix(0.06172839506172839,0,0,0.06172839506172839,133.02469135802468,0)" xlink:href="#bO"/></g><g id="af"><use transform="matrix(0.06172839506172839,0,0,0.06172839506172839,0,0)" xlink:href="#aW"/><use transform="matrix(0.06172839506172839,0,0,0.06172839506172839,14.814814814814813,0)" xlink:href="#bf"/><use transform="matrix(0.06172839506172839,0,0,0.06172839506172839,33.2716049382716,0)" xlink:href="#aV"/><use transform="matrix(0.06172839506172839,0,0,0.06172839506172839,50.55555555555555,0)" xlink:href="#bg"/><use transform="matrix(0.06172839506172839,0,0,0.06172839506172839,64.07407407407406,0)" xlink:href="#bh"/><use transform="matrix(0.06172839506172839,0,0,0.06172839506172839,78.88888888888887,0)" xlink:href="#bp"/><use transform="matrix(0.06172839506172839,0,0,0.06172839506172839,86.23456790123456,0)" xlink:href="#bj"/><use transform="matrix(0.06172839506172839,0,0,0.06172839506172839,102.22222222222221,0)" xlink:href="#ba"/><use transform="matrix(0.06172839506172839,0,0,0.06172839506172839,114.5679012345679,0)" xlink:href="#bO"/><use transform="matrix(0.06172839506172839,0,0,0.06172839506172839,128.0864197530864,0)" xlink:href="#bO"/><use transform="matrix(0.06172839506172839,0,0,0.06172839506172839,141.6049382716049,0)" xlink:href="#bo"/><use transform="matrix(0.06172839506172839,0,0,0.06172839506172839,147.77777777777774,0)" xlink:href="#bd"/><use transform="matrix(0.06172839506172839,0,0,0.06172839506172839,161.29629629629625,0)" xlink:href="#bO"/></g><g id="ag"><use transform="matrix(0.06172839506172839,0,0,0.06172839506172839,0,0)" xlink:href="#bj"/><use transform="matrix(0.06172839506172839,0,0,0.06172839506172839,15.987654320987653,0)" xlink:href="#ba"/><use transform="matrix(0.06172839506172839,0,0,0.06172839506172839,28.333333333333332,0)" xlink:href="#bO"/><use transform="matrix(0.06172839506172839,0,0,0.06172839506172839,41.85185185185185,0)" xlink:href="#bO"/><use transform="matrix(0.06172839506172839,0,0,0.06172839506172839,55.37037037037037,0)" xlink:href="#bo"/><use transform="matrix(0.06172839506172839,0,0,0.06172839506172839,61.54320987654321,0)" xlink:href="#bd"/><use transform="matrix(0.06172839506172839,0,0,0.06172839506172839,75.06172839506172,0)" xlink:href="#bO"/></g><g id="ah"><use transform="matrix(0.06172839506172839,0,0,0.06172839506172839,0,0)" xlink:href="#bj"/><use transform="matrix(0.06172839506172839,0,0,0.06172839506172839,15.987654320987653,0)" xlink:href="#bk"/><use transform="matrix(0.06172839506172839,0,0,0.06172839506172839,29.50617283950617,0)" xlink:href="#bk"/><use transform="matrix(0.06172839506172839,0,0,0.06172839506172839,43.02469135802469,0)" xlink:href="#bb"/><use transform="matrix(0.06172839506172839,0,0,0.06172839506172839,55.37037037037037,0)" xlink:href="#bu"/><use transform="matrix(0.06172839506172839,0,0,0.06172839506172839,62.716049382716044,0)" xlink:href="#bo"/><use transform="matrix(0.06172839506172839,0,0,0.06172839506172839,68.88888888888889,0)" xlink:href="#bd"/><use transform="matrix(0.06172839506172839,0,0,0.06172839506172839,82.4074074074074,0)" xlink:href="#bO"/></g><path fill="#333" d="M186 0v-106H76V0H24v-248h52v99h110v-99h50V0h-50" id="bQ"/><g id="ai"><use transform="matrix(0.06172839506172839,0,0,0.06172839506172839,0,0)" xlink:href="#bQ"/><use transform="matrix(0.06172839506172839,0,0,0.06172839506172839,15.987654320987653,0)" xlink:href="#bc"/><use transform="matrix(0.06172839506172839,0,0,0.06172839506172839,28.333333333333332,0)" xlink:href="#bJ"/><use transform="matrix(0.06172839506172839,0,0,0.06172839506172839,41.85185185185185,0)" xlink:href="#bl"/><use transform="matrix(0.06172839506172839,0,0,0.06172839506172839,50.49382716049382,0)" xlink:href="#bo"/><use transform="matrix(0.06172839506172839,0,0,0.06172839506172839,56.666666666666664,0)" xlink:href="#aZ"/></g><g id="aj"><use transform="matrix(0.06172839506172839,0,0,0.06172839506172839,0,0)" xlink:href="#aU"/><use transform="matrix(0.06172839506172839,0,0,0.06172839506172839,15.987654320987653,0)" xlink:href="#bK"/><use transform="matrix(0.06172839506172839,0,0,0.06172839506172839,31.975308641975307,0)" xlink:href="#aW"/><use transform="matrix(0.06172839506172839,0,0,0.06172839506172839,46.79012345679012,0)" xlink:href="#bJ"/><use transform="matrix(0.06172839506172839,0,0,0.06172839506172839,60.30864197530864,0)" xlink:href="#bk"/><use transform="matrix(0.06172839506172839,0,0,0.06172839506172839,73.82716049382715,0)" xlink:href="#bk"/><use transform="matrix(0.06172839506172839,0,0,0.06172839506172839,87.34567901234567,0)" xlink:href="#bb"/><use transform="matrix(0.06172839506172839,0,0,0.06172839506172839,99.69135802469135,0)" xlink:href="#bu"/></g><g id="ak"><use transform="matrix(0.06172839506172839,0,0,0.06172839506172839,0,0)" xlink:href="#aV"/><use transform="matrix(0.06172839506172839,0,0,0.06172839506172839,17.28395061728395,0)" xlink:href="#bP"/><use transform="matrix(0.06172839506172839,0,0,0.06172839506172839,29.629629629629626,0)" xlink:href="#bm"/><use transform="matrix(0.06172839506172839,0,0,0.06172839506172839,41.9753086419753,0)" xlink:href="#bl"/><use transform="matrix(0.06172839506172839,0,0,0.06172839506172839,50.61728395061728,0)" xlink:href="#bp"/><use transform="matrix(0.06172839506172839,0,0,0.06172839506172839,57.962962962962955,0)" xlink:href="#bJ"/><use transform="matrix(0.06172839506172839,0,0,0.06172839506172839,71.48148148148147,0)" xlink:href="#bk"/><use transform="matrix(0.06172839506172839,0,0,0.06172839506172839,84.99999999999999,0)" xlink:href="#bk"/><use transform="matrix(0.06172839506172839,0,0,0.06172839506172839,98.5185185185185,0)" xlink:href="#bb"/><use transform="matrix(0.06172839506172839,0,0,0.06172839506172839,110.86419753086419,0)" xlink:href="#bu"/></g><g id="al"><use transform="matrix(0.06172839506172839,0,0,0.06172839506172839,0,0)" xlink:href="#bh"/><use transform="matrix(0.06172839506172839,0,0,0.06172839506172839,14.814814814814813,0)" xlink:href="#ba"/><use transform="matrix(0.06172839506172839,0,0,0.06172839506172839,27.160493827160494,0)" xlink:href="#bb"/><use transform="matrix(0.06172839506172839,0,0,0.06172839506172839,39.50617283950617,0)" xlink:href="#bc"/></g><g id="am"><use transform="matrix(0.06172839506172839,0,0,0.06172839506172839,0,0)" xlink:href="#bh"/><use transform="matrix(0.06172839506172839,0,0,0.06172839506172839,14.814814814814813,0)" xlink:href="#bd"/><use transform="matrix(0.06172839506172839,0,0,0.06172839506172839,28.33333333333333,0)" xlink:href="#bb"/><use transform="matrix(0.06172839506172839,0,0,0.06172839506172839,40.679012345679006,0)" xlink:href="#bm"/><use transform="matrix(0.06172839506172839,0,0,0.06172839506172839,53.02469135802468,0)" xlink:href="#bs"/><use transform="matrix(0.06172839506172839,0,0,0.06172839506172839,72.77777777777777,0)" xlink:href="#bJ"/><use transform="matrix(0.06172839506172839,0,0,0.06172839506172839,86.29629629629629,0)" xlink:href="#bn"/><use transform="matrix(0.06172839506172839,0,0,0.06172839506172839,92.46913580246913,0)" xlink:href="#bm"/></g></defs></g></svg>